<svg xmlns="http://www.w3.org/2000/svg" width="512" height="512" fill="none"><path fill="#035" d="M0 39.816C0 33.29 5.287 28 11.808 28H168.41v161.704c0 6.627 5.372 12 12 12H342V287h-74c-24.301 0-44 19.699-44 44v24c0 24.301 19.699 44 44 44h74v74.184c0 6.526-5.287 11.816-11.808 11.816H11.808C5.287 485 0 479.71 0 473.184z"/><path fill="#035" d="M199.898 34a6 6 0 0 1 6-6h2.666c3.136 0 6.144 1.249 8.359 3.47l121.628 121.998a11.82 11.82 0 0 1 3.449 8.345v2.382a6 6 0 0 1-6 6H205.898a6 6 0 0 1-6-6z"/><path fill="#035" fill-rule="evenodd" d="M381.077 415.982c-9.399 9.347-9.441 24.543-.095 33.941s24.543 9.441 33.941.095l90-89.5a24 24 0 0 0 0-34.036l-90-89.5c-9.398-9.346-24.594-9.304-33.941.095-9.346 9.398-9.304 24.594.095 33.941L429.327 319H268c-6.627 0-12 5.373-12 12v24c0 6.627 5.373 12 12 12h162.333z" clip-rule="evenodd"/></svg>