<svg xmlns="http://www.w3.org/2000/svg" width="200" height="200"><defs><filter id="b" width="1.367" height="1.153" x="-.183" y="-.077" style="color-interpolation-filters:sRGB"><feGaussianBlur stdDeviation="1.223"/></filter><filter id="a" width="1.367" height="1.153" x="-.183" y="-.077" style="color-interpolation-filters:sRGB"><feGaussianBlur stdDeviation="1.223"/></filter></defs><path fill="#fff" d="M42.224 27.435V-.303h16v27.738l-8 10.622Z" style="fill:#ececec;stroke-width:1.04876;filter:url(#a)" transform="matrix(1.87915 0 0 1.87915 6.042 6.086)"/><path fill="#fff" d="M114.094 56.635V6.086H85.906v50.55L100 75.99Z"/><path fill="#fff" d="M42.224 72.518v27.739h16v-27.74l-8-10.62Z" style="fill:#ececec;stroke-width:1.04876;filter:url(#b)" transform="matrix(1.87915 0 0 1.87915 6.042 6.086)"/><path fill="#fff" d="M86.138 143.56v50.549h28.187v-50.55l-14.093-19.355z"/><path fill="#00f2e6" d="m114.094 143.452 29.69 40.966 22.926-16.725-29.879-40.777-22.737-7.517ZM85.906 56.635 56.216 15.67 33.29 32.394l29.879 40.778 22.737 7.517z"/><path fill="#00b9f1" d="M63.169 73.172 15.062 57.575 6.23 84.447l48.107 15.597 22.925-7.329ZM122.738 107.373l14.093 19.543 48.107 15.597 8.832-26.872-48.107-15.597Z"/><path fill="#d63aff" d="m145.663 100.044 48.107-15.597-8.832-26.872-48.107 15.597-14.093 19.543ZM54.337 100.044 6.23 115.64l8.832 26.872 48.107-15.597 14.093-19.543Z"/><path fill="#fb015b" d="M63.169 126.916 33.29 167.693l22.926 16.725 29.69-40.966V119.4ZM136.831 73.172l29.879-40.778-22.926-16.724-29.69 40.965V80.69z"/></svg>