<svg xmlns="http://www.w3.org/2000/svg" width="512" height="512" fill="none"><g fill="#F92" clip-path="url(#a)"><path d="M170.283 48H196.5c6.627 0 12-5.373 12-12V12c0-6.627-5.373-12-12-12h-26.217c-44.183 0-80 35.817-80 80v96c0 30.928-25.072 56-56 56H23c-6.627 0-12 5.372-12 12v24c0 6.627 5.372 12 12 12h11.283c30.928 0 56 25.072 56 56v104c0 39.764 32.235 72 72 72H196.5c6.627 0 12-5.373 12-12v-24c0-6.627-5.373-12-12-12h-34.217c-13.255 0-24-10.745-24-24V336c0-26.978-10.272-51.557-27.119-70.039-5.055-5.545-5.055-14.377 0-19.922 16.847-18.482 27.119-43.061 27.119-70.039V80c0-17.673 14.327-32 32-32M305 36c0 6.627 5.373 12 12 12h25.979c17.673 0 31.999 14.327 31.999 32v96c0 26.978 10.273 51.557 27.12 70.039 5.055 5.545 5.055 14.377 0 19.922-16.847 18.482-27.12 43.061-27.12 70.039v96c0 17.673-14.326 32-31.999 32H317c-6.627 0-12 5.373-12 12v24c0 6.627 5.373 12 12 12h25.979c44.182 0 79.999-35.817 79.999-80v-96c0-30.928 25.073-56 56.001-56H490c6.627 0 12-5.372 12-12v-24c0-6.627-5.372-12-12-12h-11.021c-30.928 0-56.001-25.072-56.001-56V80c0-44.183-35.817-80-79.999-80H317c-6.627 0-12 5.373-12 12z"/></g><defs><clipPath id="a"><path fill="#fff" d="M0 0h512v512H0z"/></clipPath></defs></svg>