<svg xmlns="http://www.w3.org/2000/svg" id="Warstwa_1" data-name="Warstwa 1" viewBox="0 0 600 600"><defs><style>.cls-1{fill:#4d68c4}.cls-3{fill:#2bc3f1}</style></defs><rect width="374.174" height="148.348" y="451.652" class="cls-1" rx="32.256" transform="rotate(180 187.087 525.826)"/><path d="M32.256 225.826h535.488A32.256 32.256 0 0 1 600 258.082v83.836a32.256 32.256 0 0 1-32.256 32.256H32.256A32.256 32.256 0 0 1 0 341.918v-83.836a32.256 32.256 0 0 1 32.256-32.256" style="fill:#5190ef" transform="rotate(180 300 300)"/><rect width="374.174" height="148.348" x="225.826" class="cls-3" rx="32.256" transform="rotate(180 412.913 74.174)"/><rect width="148.348" height="148.348" x="451.652" y="451.652" class="cls-1" rx="32.256" transform="rotate(-180 525.826 525.826)"/><rect width="148.348" height="148.348" class="cls-3" rx="32.256"/></svg>