<svg xmlns="http://www.w3.org/2000/svg" width="512" height="512" fill="none"><g fill="#4A4" clip-path="url(#a)"><path d="M0 12C0 5.373 5.373 0 12 0h147v154c0 6.627 5.373 12 12 12h154v76h-96.438a48 48 0 0 0-42.274 25.264l-57.085 106.143a52 52 0 0 0-6.203 24.63V434H12c-6.627 0-12-5.373-12-12z"/><path d="M325 134v-6.599a12 12 0 0 0-3.505-8.476L206.369 3.525A12 12 0 0 0 197.873 0H191v134z"/><path fill-rule="evenodd" d="M228.563 274a16 16 0 0 0-14.091 8.421L172.211 361H492.64l-47.97-79.283A16 16 0 0 0 430.981 274zM155 409c0-8.837 7.163-16 16-16h325c8.837 0 16 7.163 16 16v87c0 8.837-7.163 16-16 16H171c-8.837 0-16-7.163-16-16zm242 44c0 13.255-10.745 24-24 24s-24-10.745-24-24 10.745-24 24-24 24 10.745 24 24m48 24c13.255 0 24-10.745 24-24s-10.745-24-24-24-24 10.745-24 24 10.745 24 24 24" clip-rule="evenodd"/></g><defs><clipPath id="a"><path fill="#fff" d="M0 0h512v512H0z"/></clipPath></defs></svg>