<svg xmlns="http://www.w3.org/2000/svg" width="512" height="512" fill="none"><g fill="#24F" clip-path="url(#a)"><path d="M170 39.808C170 33.287 175.287 28 181.808 28H338.41v161.59c0 6.628 5.372 12 12 12H512v271.303c0 6.522-5.287 11.808-11.808 11.808H181.808a11.79 11.79 0 0 1-9.401-4.662 56.3 56.3 0 0 0 9.081-7.331l90-89.5a56 56 0 0 0 0-79.416l-90-89.5A56 56 0 0 0 170 205.487z"/><path d="M369.898 34a6 6 0 0 1 6-6h2.666c3.136 0 6.144 1.248 8.359 3.468l121.628 121.918a11.8 11.8 0 0 1 3.449 8.34v2.376a6 6 0 0 1-6 6H375.898a6 6 0 0 1-6-6z"/><path fill-rule="evenodd" d="M125.077 415.982c-9.399 9.347-9.441 24.543-.095 33.941s24.543 9.441 33.941.095l90-89.5a24 24 0 0 0 0-34.036l-90-89.5c-9.398-9.346-24.594-9.304-33.941.095-9.346 9.398-9.304 24.594.095 33.941L173.327 319H12c-6.627 0-12 5.373-12 12v24c0 6.627 5.373 12 12 12h162.333z" clip-rule="evenodd"/></g><defs><clipPath id="a"><path fill="#fff" d="M0 0h512v512H0z"/></clipPath></defs></svg>