<svg xmlns="http://www.w3.org/2000/svg" width="512" height="512" fill="none"><g clip-path="url(#a)"><path fill="#54B8C9" fill-rule="evenodd" d="M0 48C0 21.49 21.49 0 48 0h64c26.51 0 48 21.49 48 48v8h36.252c44.183 0 80 35.817 80 80v56c0 22.091 17.909 40 40 40H352v-8c0-26.51 21.49-48 48-48h64c26.51 0 48 21.49 48 48v64c0 26.51-21.49 48-48 48h-64c-26.51 0-48-21.49-48-48v-8h-35.748c-22.091 0-40 17.909-40 40v56c0 44.183-35.817 80-80 80H160v8c0 26.51-21.49 48-48 48H48c-26.51 0-48-21.49-48-48v-64c0-26.51 21.49-48 48-48h64c26.51 0 48 21.49 48 48v8h36.252c17.673 0 32-14.327 32-32v-56c0-25.216 10.607-47.956 27.601-64-16.994-16.044-27.601-38.784-27.601-64v-56c0-17.673-14.327-32-32-32H160v8c0 26.51-21.49 48-48 48H48c-26.51 0-48-21.49-48-48zm104 0a8 8 0 0 1 8 8v48a8 8 0 0 1-8 8H56a8 8 0 0 1-8-8V56a8 8 0 0 1 8-8zm352 176a8 8 0 0 1 8 8v48a8 8 0 0 1-8 8h-48a8 8 0 0 1-8-8v-48a8 8 0 0 1 8-8zM112 408a8 8 0 0 0-8-8H56a8 8 0 0 0-8 8v48a8 8 0 0 0 8 8h48a8 8 0 0 0 8-8z" clip-rule="evenodd"/></g><defs><clipPath id="a"><path fill="#fff" d="M0 0h512v512H0z"/></clipPath></defs></svg>